<svg xmlns="http://www.w3.org/2000/svg" width="30" height="30" viewBox="0 0 30 30"><path d="M4.395,30H14.18V19.336H10.664V15.82H14.18V11.426a4.4,4.4,0,0,1,4.395-4.395h4.395v3.516H19.453A1.76,1.76,0,0,0,17.7,12.3V15.82H22.81l-.586,3.516H17.7V30h7.91A4.4,4.4,0,0,0,30,25.605V4.395A4.4,4.4,0,0,0,25.605,0H4.395A4.4,4.4,0,0,0,0,4.395V25.605A4.4,4.4,0,0,0,4.395,30ZM1.758,4.395A2.64,2.64,0,0,1,4.395,1.758H25.605a2.64,2.64,0,0,1,2.637,2.637V25.605a2.64,2.64,0,0,1-2.637,2.637H19.453V21.094h4.26l1.172-7.031H19.453V12.3h5.273V5.273H18.574a6.159,6.159,0,0,0-6.152,6.152v2.637H8.906v7.031h3.516v7.148H4.395a2.64,2.64,0,0,1-2.637-2.637Zm0,0" fill="#306bac"/></svg>