<svg xmlns="http://www.w3.org/2000/svg" width="30.095" height="30" viewBox="0 0 30.095 30"><g transform="translate(4)"><path d="M4.408,30H25.687A4.406,4.406,0,0,0,30.1,25.605V4.395A4.406,4.406,0,0,0,25.687,0H4.408A4.406,4.406,0,0,0,0,4.395V25.605A4.406,4.406,0,0,0,4.408,30ZM1.763,4.395A2.644,2.644,0,0,1,4.408,1.758H25.687a2.644,2.644,0,0,1,2.645,2.637V25.605a2.644,2.644,0,0,1-2.645,2.637H4.408a2.644,2.644,0,0,1-2.645-2.637Zm0,0" transform="translate(-4)" fill="#306bac"/><path d="M128.935,136.775A7.888,7.888,0,1,0,121,128.888,7.921,7.921,0,0,0,128.935,136.775Zm0-14.022a6.135,6.135,0,1,1-6.172,6.135A6.16,6.16,0,0,1,128.935,122.753Zm0,0" transform="translate(-117.888 -113.888)" fill="#306bac"/><path d="M363.645,66.29A2.645,2.645,0,1,0,361,63.645,2.648,2.648,0,0,0,363.645,66.29Zm0-3.527a.882.882,0,1,1-.882.882A.883.883,0,0,1,363.645,62.763Zm0,0" transform="translate(-343.78 -57.414)" fill="#306bac"/></g></svg>