<svg xmlns="http://www.w3.org/2000/svg" width="30" height="30" viewBox="0 0 30 30"><path d="M30,4.007c-1.887.106-1.846.1-2.059.119l1.118-3.9S25.57,1.794,24.685,2.075a6.023,6.023,0,0,0-8.243-.81A7.592,7.592,0,0,0,13.7,8.438C9.764,7.771,6.449,5.493,3.832,1.652L3,.437,2.386,1.825A10.026,10.026,0,0,0,1.655,7.47a9.346,9.346,0,0,0,.643,2.2l-.71-.336L1.5,10.787a9.04,9.04,0,0,0,1.073,4.6,8.1,8.1,0,0,0,.836,1.26l-.367-.069.448,1.661a7.806,7.806,0,0,0,3.4,4.809,52.177,52.177,0,0,1-4.967,2.191L0,26.009,1.777,27.2a16.72,16.72,0,0,0,5.439,2.418c5.26,1.008,11.182.187,15.168-4.2,3.358-3.7,4.46-8.951,4.231-14.421a3.98,3.98,0,0,1,.523-2.225C27.882,7.554,30,4.015,30,4.007ZM25.732,7.483a6.472,6.472,0,0,0-.871,3.621c.231,5.517-1,9.8-3.652,12.717-3.1,3.412-8.1,4.751-13.721,3.674a11.829,11.829,0,0,1-2.94-1.067,42.28,42.28,0,0,0,5.325-2.674l3.07-1.776-3.39-.265a4.7,4.7,0,0,1-3.807-2.649,5.082,5.082,0,0,0,1.29-.263l3.233-1.1-3.26-.975A5.033,5.033,0,0,1,4.045,14.2,6.8,6.8,0,0,1,3.4,12.472a6.8,6.8,0,0,0,1.322.258l3.017.365L5.351,10.815A6.925,6.925,0,0,1,3.444,4.337a15.847,15.847,0,0,0,12.323,6.481A15.39,15.39,0,0,0,15.588,9c-.814-3.514.97-5.3,1.774-5.9a4.517,4.517,0,0,1,6.194.627A1.382,1.382,0,0,0,25,4.192a10.577,10.577,0,0,0,1.189-.442L25.43,6.395H26.4l-.665,1.087Zm0,0" transform="translate(0 0)" fill="#306bac"/></svg>